<svg viewBox="0 0 24.0005 14" xmlns="http://www.w3.org/2000/svg" xmlns:xlink="http://www.w3.org/1999/xlink" width="24.000504" height="14.000000" fill="none" customFrame="#000000">
	<path id="Vector" d="M23.45 0.948122C23.616 0.402122 23.45 0.00012207 22.655 0.00012207L20.03 0.00012207C19.362 0.00012207 19.054 0.347122 18.887 0.730122C18.887 0.730122 17.552 3.92612 15.661 6.00212C15.049 6.60412 14.771 6.79512 14.437 6.79512C14.27 6.79512 14.019 6.60412 14.019 6.05712L14.019 0.948122C14.019 0.292122 13.835 0.00012207 13.279 0.00012207L9.151 0.00012207C8.734 0.00012207 8.483 0.304122 8.483 0.593122C8.483 1.21412 9.429 1.35812 9.526 3.10612L9.526 6.90412C9.526 7.73712 9.373 7.88812 9.039 7.88812C8.149 7.88812 5.984 4.67712 4.699 1.00312C4.45 0.288122 4.198 0.00012207 3.527 0.00012207L0.9 0.00012207C0.15 0.00012207 0 0.347122 0 0.730122C0 1.41212 0.89 4.80012 4.145 9.28112C6.315 12.3411 9.37 14.0001 12.153 14.0001C13.822 14.0001 14.028 13.6321 14.028 12.9971L14.028 10.6841C14.028 9.94712 14.186 9.80012 14.715 9.80012C15.105 9.80012 15.772 9.99212 17.33 11.4671C19.11 13.2161 19.403 14.0001 20.405 14.0001L23.03 14.0001C23.78 14.0001 24.156 13.6321 23.94 12.9041C23.702 12.1801 22.852 11.1291 21.725 9.88212C21.113 9.17212 20.195 8.40712 19.916 8.02412C19.527 7.53312 19.638 7.31412 19.916 6.87712C19.916 6.87712 23.116 2.45112 23.449 0.948122L23.45 0.948122Z" fill="rgb(136.078,136.078,136.078)" fill-rule="evenodd" />
</svg>
