<svg viewBox="0 0 23.7813 19.3357" xmlns="http://www.w3.org/2000/svg" xmlns:xlink="http://www.w3.org/1999/xlink" width="23.781334" height="19.335693" fill="none" customFrame="#000000">
	<path id="Vector" d="M23.7802 2.29536C22.8895 2.68933 21.9449 2.94808 20.9778 3.06303C21.9972 2.45336 22.7601 1.49388 23.1245 0.363358C22.1678 0.932692 21.119 1.33169 20.0258 1.54752C19.2915 0.761867 18.3182 0.240815 17.2573 0.0653739C16.1963 -0.110068 15.1071 0.0699312 14.159 0.577387C13.2108 1.08484 12.4569 1.89132 12.0145 2.87145C11.572 3.85158 11.4657 4.95043 11.7122 5.99719C9.77211 5.89995 7.87421 5.3958 6.14165 4.51747C4.4091 3.63913 2.88063 2.40625 1.65548 0.898858C1.22182 1.64372 0.993932 2.49046 0.995151 3.35236C0.995151 5.04402 1.85615 6.53853 3.16515 7.41353C2.3905 7.38914 1.63289 7.17994 0.955485 6.80336L0.955485 6.86402C0.955719 7.99068 1.34558 9.08258 2.05897 9.9546C2.77237 10.8266 3.76538 11.4251 4.86965 11.6485C4.15054 11.8434 3.39651 11.8721 2.66465 11.7325C2.976 12.7023 3.58283 13.5504 4.40018 14.1582C5.21752 14.7659 6.20447 15.1028 7.22282 15.1217C6.21071 15.9166 5.05186 16.5042 3.81251 16.8509C2.57317 17.1976 1.27763 17.2967 -1.52588e-05 17.1424C2.2303 18.5767 4.8266 19.3382 7.47832 19.3357C16.4535 19.3357 21.3617 11.9005 21.3617 5.45236C21.3617 5.24236 21.3558 5.03003 21.3465 4.82236C22.3018 4.13189 23.1264 3.27655 23.7813 2.29653L23.7802 2.29536Z" fill="rgb(136.078,136.078,136.078)" fill-rule="nonzero" />
</svg>
