<svg viewBox="0 0 201 44" xmlns="http://www.w3.org/2000/svg" xmlns:xlink="http://www.w3.org/1999/xlink" width="201.000000" height="44.000000" fill="none" customFrame="#000000">
	<path id="Вело-сити" d="M20.127 21.8955C21.7324 22.3291 22.9541 23.0674 23.792 24.1104C24.6357 25.1533 25.0576 26.4541 25.0576 28.0127C25.0576 30.2217 24.2402 31.9385 22.6055 33.1631C20.9766 34.3877 18.6123 35 15.5127 35L3.56836 35L3.56836 9.80176L14.8359 9.80176C17.666 9.80176 19.8721 10.3672 21.4541 11.498C23.042 12.623 23.8359 14.2168 23.8359 16.2793C23.8359 17.5977 23.5166 18.7373 22.8779 19.6982C22.2393 20.6592 21.3223 21.3916 20.127 21.8955ZM8.17383 20.5684L14.4316 20.5684C15.9492 20.5684 17.1035 20.2695 17.8945 19.6719C18.6855 19.0684 19.0811 18.1777 19.0811 17C19.0811 15.8223 18.6855 14.9287 17.8945 14.3193C17.1035 13.7041 15.9492 13.3965 14.4316 13.3965L8.17383 13.3965L8.17383 20.5684ZM15.3721 31.3965C18.6826 31.3965 20.3379 30.1484 20.3379 27.6523C20.3379 25.209 18.6826 23.9873 15.3721 23.9873L8.17383 23.9873L8.17383 31.3965L15.3721 31.3965ZM47.8794 25.499C47.8794 25.8096 47.856 26.252 47.8091 26.8262L32.7271 26.8262C32.9908 28.2441 33.6792 29.3662 34.7925 30.1924C35.9117 31.0186 37.2974 31.4316 38.9497 31.4316C41.065 31.4316 42.8052 30.7373 44.1705 29.3486L46.5874 32.1172C45.7203 33.1484 44.6275 33.9307 43.3091 34.4639C41.9908 34.9912 40.5025 35.2549 38.8443 35.2549C36.7349 35.2549 34.8746 34.8359 33.2632 33.998C31.6578 33.1543 30.4156 31.9824 29.5367 30.4824C28.6636 28.9824 28.2271 27.2832 28.2271 25.3848C28.2271 23.5156 28.6519 21.8311 29.5015 20.3311C30.3511 18.8311 31.5318 17.6621 33.0435 16.8242C34.5611 15.9805 36.2662 15.5586 38.1587 15.5586C40.0337 15.5586 41.7066 15.9746 43.1773 16.8066C44.6539 17.6328 45.8052 18.7959 46.6314 20.2959C47.4634 21.7959 47.8794 23.5303 47.8794 25.499ZM38.1587 19.1621C36.7173 19.1621 35.4986 19.5898 34.5025 20.4453C33.5064 21.2949 32.9029 22.4258 32.6919 23.8379L43.5992 23.8379C43.4058 22.4492 42.8169 21.3242 41.8326 20.4629C40.8482 19.5957 39.6236 19.1621 38.1587 19.1621ZM69.9881 15.7783L69.9881 35L65.4881 35L65.4881 19.5928L58.2811 19.5928L58.1053 23.4072C57.9823 25.9502 57.7479 28.0801 57.4022 29.7969C57.0565 31.5137 56.4676 32.8701 55.6356 33.8662C54.8094 34.8623 53.6756 35.3604 52.2342 35.3604C51.5663 35.3604 50.7401 35.2285 49.7557 34.9648L49.9667 31.1855C50.3006 31.2559 50.5878 31.291 50.828 31.291C51.7421 31.291 52.4276 30.9248 52.8846 30.1924C53.3417 29.46 53.6346 28.584 53.7635 27.5645C53.8983 26.5449 54.0126 25.0889 54.1063 23.1963L54.4315 15.7783L69.9881 15.7783ZM84.6008 35.2549C82.6555 35.2549 80.9035 34.8359 79.3449 33.998C77.7863 33.1543 76.5676 31.9824 75.6887 30.4824C74.8156 28.9824 74.3791 27.2832 74.3791 25.3848C74.3791 23.4922 74.8156 21.8018 75.6887 20.3135C76.5676 18.8252 77.7863 17.6621 79.3449 16.8242C80.9035 15.9805 82.6555 15.5586 84.6008 15.5586C86.5695 15.5586 88.3332 15.9805 89.8918 16.8242C91.4504 17.6621 92.6662 18.8252 93.5392 20.3135C94.4182 21.8018 94.8576 23.4922 94.8576 25.3848C94.8576 27.2832 94.4182 28.9824 93.5392 30.4824C92.6662 31.9824 91.4504 33.1543 89.8918 33.998C88.3332 34.8359 86.5695 35.2549 84.6008 35.2549ZM84.6008 31.3965C86.259 31.3965 87.6271 30.8457 88.7053 29.7441C89.7834 28.6426 90.3224 27.1895 90.3224 25.3848C90.3224 23.5859 89.7834 22.1357 88.7053 21.0342C87.6271 19.9268 86.259 19.373 84.6008 19.373C82.9426 19.373 81.5803 19.9268 80.5139 21.0342C79.4474 22.1357 78.9142 23.5859 78.9142 25.3848C78.9142 27.1895 79.4474 28.6426 80.5139 29.7441C81.5803 30.8457 82.9426 31.3965 84.6008 31.3965ZM98.6015 23.1172L108.507 23.1172L108.507 26.8613L98.6015 26.8613L98.6015 23.1172ZM122.613 35.2549C120.62 35.2549 118.833 34.8359 117.251 33.998C115.669 33.1543 114.433 31.9824 113.542 30.4824C112.657 28.9824 112.215 27.2832 112.215 25.3848C112.215 23.4922 112.657 21.8018 113.542 20.3135C114.433 18.8252 115.663 17.6621 117.234 16.8242C118.804 15.9805 120.597 15.5586 122.613 15.5586C124.511 15.5586 126.172 15.9424 127.596 16.71C129.026 17.4775 130.101 18.582 130.822 20.0234L127.367 22.0361C126.817 21.1514 126.125 20.4863 125.293 20.041C124.467 19.5957 123.562 19.373 122.577 19.373C120.902 19.373 119.51 19.9209 118.403 21.0166C117.301 22.1064 116.75 23.5625 116.75 25.3848C116.75 27.2129 117.295 28.6719 118.385 29.7617C119.475 30.8516 120.872 31.3965 122.577 31.3965C123.562 31.3965 124.467 31.1768 125.293 30.7373C126.125 30.292 126.817 29.624 127.367 28.7334L130.822 30.7549C130.077 32.1904 128.99 33.3008 127.561 34.0859C126.137 34.8652 124.488 35.2549 122.613 35.2549ZM134.783 15.7783L139.283 15.7783L139.283 28.4521L149.901 15.7783L154.005 15.7783L154.005 35L149.505 35L149.505 22.3262L138.923 35L134.783 35L134.783 15.7783ZM175.287 19.5928L168.554 19.5928L168.554 35L164.054 35L164.054 19.5928L157.287 19.5928L157.287 15.7783L175.287 15.7783L175.287 19.5928ZM178.559 15.7783L183.059 15.7783L183.059 28.4521L193.677 15.7783L197.781 15.7783L197.781 35L193.281 35L193.281 22.3262L182.699 35L178.559 35L178.559 15.7783Z" fill="rgb(255,255,255)" fill-rule="nonzero" />
</svg>
