<svg viewBox="0 0 201 44" xmlns="http://www.w3.org/2000/svg" xmlns:xlink="http://www.w3.org/1999/xlink" width="201.000000" height="44.000000" fill="none" customFrame="#000000">
	<path id="Интерьер." d="M20.127 21.8955Q22.5352 22.5459 23.792 24.1104Q25.0576 25.6748 25.0576 28.0127Q25.0576 31.3262 22.6055 33.1631Q20.1621 35 15.5127 35L3.56836 35L3.56836 9.80176L14.8359 9.80176Q19.0811 9.80176 21.4541 11.498Q23.8359 13.1855 23.8359 16.2793Q23.8359 18.2568 22.8779 19.6982Q21.9199 21.1396 20.127 21.8955ZM8.17383 20.5684L14.4316 20.5684Q16.708 20.5684 17.8945 19.6719Q19.0811 18.7666 19.0811 17Q19.0811 15.2334 17.8945 14.3193Q16.708 13.3965 14.4316 13.3965L8.17383 13.3965L8.17383 20.5684ZM15.3721 31.3965Q20.3379 31.3965 20.3379 27.6523Q20.3379 23.9873 15.3721 23.9873L8.17383 23.9873L8.17383 31.3965L15.3721 31.3965ZM47.8794 25.499Q47.8794 25.9648 47.8091 26.8262L32.7271 26.8262Q33.1226 28.9531 34.7925 30.1924Q36.4712 31.4316 38.9497 31.4316Q42.1226 31.4316 44.1705 29.3486L46.5874 32.1172Q45.2867 33.6641 43.3091 34.4639Q41.3316 35.2549 38.8443 35.2549Q35.6802 35.2549 33.2632 33.998Q30.855 32.7324 29.5367 30.4824Q28.2271 28.2324 28.2271 25.3848Q28.2271 22.5811 29.5015 20.3311Q30.7759 18.0811 33.0435 16.8242Q35.3199 15.5586 38.1587 15.5586Q40.9712 15.5586 43.1773 16.8066Q45.3921 18.0459 46.6314 20.2959Q47.8794 22.5459 47.8794 25.499ZM38.1587 19.1621Q35.9966 19.1621 34.5025 20.4453Q33.0083 21.7197 32.6919 23.8379L43.5992 23.8379Q43.3091 21.7549 41.8326 20.4629Q40.356 19.1621 38.1587 19.1621ZM69.9881 15.7783L69.9881 35L65.4881 35L65.4881 19.5928L58.2811 19.5928L58.1053 23.4072Q57.9208 27.2217 57.4022 29.7969Q56.8837 32.3721 55.6356 33.8662Q54.3963 35.3604 52.2342 35.3604Q51.2323 35.3604 49.7557 34.9648L49.9667 31.1855Q50.4676 31.291 50.828 31.291Q52.1991 31.291 52.8846 30.1924Q53.5702 29.0938 53.7635 27.5645Q53.9657 26.0352 54.1063 23.1963L54.4315 15.7783L69.9881 15.7783ZM84.6008 35.2549Q81.6828 35.2549 79.3449 33.998Q77.007 32.7324 75.6887 30.4824Q74.3791 28.2324 74.3791 25.3848Q74.3791 22.5459 75.6887 20.3135Q77.007 18.0811 79.3449 16.8242Q81.6828 15.5586 84.6008 15.5586Q87.5539 15.5586 89.8918 16.8242Q92.2297 18.0811 93.5392 20.3135Q94.8576 22.5459 94.8576 25.3848Q94.8576 28.2324 93.5392 30.4824Q92.2297 32.7324 89.8918 33.998Q87.5539 35.2549 84.6008 35.2549ZM84.6008 31.3965Q87.0881 31.3965 88.7053 29.7441Q90.3224 28.0918 90.3224 25.3848Q90.3224 22.6865 88.7053 21.0342Q87.0881 19.373 84.6008 19.373Q82.1135 19.373 80.5139 21.0342Q78.9142 22.6865 78.9142 25.3848Q78.9142 28.0918 80.5139 29.7441Q82.1135 31.3965 84.6008 31.3965ZM98.6015 23.1172L108.507 23.1172L108.507 26.8613L98.6015 26.8613L98.6015 23.1172ZM122.613 35.2549Q119.624 35.2549 117.251 33.998Q114.878 32.7324 113.542 30.4824Q112.215 28.2324 112.215 25.3848Q112.215 22.5459 113.542 20.3135Q114.878 18.0811 117.234 16.8242Q119.589 15.5586 122.613 15.5586Q125.46 15.5586 127.596 16.71Q129.74 17.8613 130.822 20.0234L127.367 22.0361Q126.541 20.709 125.293 20.041Q124.054 19.373 122.577 19.373Q120.064 19.373 118.403 21.0166Q116.75 22.6514 116.75 25.3848Q116.75 28.127 118.385 29.7617Q120.02 31.3965 122.577 31.3965Q124.054 31.3965 125.293 30.7373Q126.541 30.0693 127.367 28.7334L130.822 30.7549Q129.705 32.9082 127.561 34.0859Q125.425 35.2549 122.613 35.2549ZM134.783 15.7783L139.283 15.7783L139.283 28.4521L149.901 15.7783L154.005 15.7783L154.005 35L149.505 35L149.505 22.3262L138.923 35L134.783 35L134.783 15.7783ZM175.287 19.5928L168.554 19.5928L168.554 35L164.054 35L164.054 19.5928L157.287 19.5928L157.287 15.7783L175.287 15.7783L175.287 19.5928ZM178.559 15.7783L183.059 15.7783L183.059 28.4521L193.677 15.7783L197.781 15.7783L197.781 35L193.281 35L193.281 22.3262L182.699 35L178.559 35L178.559 15.7783Z" fill="rgb(0,0,0)" fill-rule="nonzero" />
</svg>
